<?xml version="1.0" encoding="iso-8859-1"?>
<!-- Generator: Adobe Illustrator 19.0.0, SVG Export Plug-In . SVG Version: 6.00 Build 0)  -->
<svg version="1.1" id="Layer_1" xmlns="http://www.w3.org/2000/svg" xmlns:xlink="http://www.w3.org/1999/xlink" x="0px" y="0px"
	 viewBox="0 0 512 512" style="enable-background:new 0 0 512 512;" xml:space="preserve">
<polygon style="fill:#43B05C;" points="303.08,208.92 303.08,8.828 256,8.828 208.92,8.828 208.92,208.92 8.828,208.92 
	8.828,303.08 208.92,303.08 208.92,503.172 256,503.172 303.08,503.172 303.08,303.08 503.172,303.08 503.172,208.92 "/>
<polygon style="fill:#00A65D;" points="208.92,8.828 208.92,208.92 8.828,208.92 8.828,303.08 208.92,303.08 208.92,503.172 
	256,503.172 256,8.828 "/>
<path d="M311.908,512H200.092V311.908H0V200.092h200.092V0h111.816v200.092H512v111.816H311.908V512z M217.747,494.345h76.506
	V294.253h200.092v-76.506H294.253V17.655h-76.506v200.092H17.655v76.506h200.092V494.345z"/>
<g>
</g>
<g>
</g>
<g>
</g>
<g>
</g>
<g>
</g>
<g>
</g>
<g>
</g>
<g>
</g>
<g>
</g>
<g>
</g>
<g>
</g>
<g>
</g>
<g>
</g>
<g>
</g>
<g>
</g>
</svg>
