<?xml version="1.0" encoding="iso-8859-1"?>
<!-- Generator: Adobe Illustrator 19.0.0, SVG Export Plug-In . SVG Version: 6.00 Build 0)  -->
<svg version="1.1" id="Layer_1" xmlns="http://www.w3.org/2000/svg" xmlns:xlink="http://www.w3.org/1999/xlink" x="0px" y="0px"
	 viewBox="0 0 512.001 512.001" style="enable-background:new 0 0 512.001 512.001;" xml:space="preserve">
<g>
	<rect x="156.616" y="8.983" style="fill:#BAC6CC;" width="287.55" height="405.262"/>
	<rect x="112.228" y="53.372" style="fill:#BAC6CC;" width="287.55" height="405.262"/>
</g>
<rect x="67.844" y="97.746" style="fill:#CFDCE5;" width="287.55" height="405.262"/>
<path d="M444.158,76.648c-4.962,0-8.983,4.022-8.983,8.983V405.26h-11.451c-4.962,0-8.983,4.022-8.983,8.983
	c0,4.961,4.021,8.983,8.983,8.983h20.434c4.962,0,8.983-4.022,8.983-8.983V85.631C453.141,80.67,449.121,76.648,444.158,76.648z"/>
<path d="M444.158,0H156.612c-4.962,0-8.983,4.022-8.983,8.983v35.406h-35.405c-4.962,0-8.983,4.022-8.983,8.983v20.421
	c0,4.961,4.021,8.983,8.983,8.983s8.983-4.022,8.983-8.983V62.355h269.58v387.293h-26.417V97.752c0-4.961-4.021-8.983-8.983-8.983
	H67.843c-4.962,0-8.983,4.022-8.983,8.983v405.265c0,4.961,4.021,8.983,8.983,8.983h57.487c4.962,0,8.983-4.022,8.983-8.983
	s-4.021-8.983-8.983-8.983H76.826V106.735h269.579v351.78c0,0.039-0.006,0.077-0.006,0.116s0.005,0.077,0.006,0.116v35.287H155.273
	c-4.962,0-8.983,4.022-8.983,8.983c0,4.961,4.021,8.983,8.983,8.983h200.115c4.962,0,8.983-4.022,8.983-8.983v-35.404h35.4
	c4.962,0,8.983-4.022,8.983-8.983V53.372c0-4.961-4.021-8.983-8.983-8.983H165.595V17.966h269.58v37.722
	c0,4.961,4.021,8.983,8.983,8.983s8.983-4.022,8.983-8.983V8.983C453.141,4.022,449.121,0,444.158,0z"/>
<path d="M278.432,156.983c4.962,0,8.983-4.022,8.983-8.983c0-4.961-4.021-8.983-8.983-8.983h-56.687
	c-4.962,0-8.983,4.022-8.983,8.983c0,4.961,4.021,8.983,8.983,8.983H278.432z"/>
<path d="M191.801,156.983c4.962,0,8.983-4.022,8.983-8.983c0-4.961-4.021-8.983-8.983-8.983H144.8c-4.962,0-8.983,4.022-8.983,8.983
	c0,4.961,4.021,8.983,8.983,8.983H191.801z"/>
<path d="M111.064,210.188c0,4.961,4.021,8.983,8.983,8.983h183.137c4.962,0,8.983-4.022,8.983-8.983
	c0-4.961-4.021-8.983-8.983-8.983H120.047C115.085,201.205,111.064,205.227,111.064,210.188z"/>
<path d="M303.184,247.021h-27.545c-4.962,0-8.983,4.022-8.983,8.983c0,4.961,4.021,8.983,8.983,8.983h27.545
	c4.962,0,8.983-4.022,8.983-8.983C312.167,251.043,308.146,247.021,303.184,247.021z"/>
<path d="M120.047,264.987h125.649c4.962,0,8.983-4.022,8.983-8.983c0-4.961-4.021-8.983-8.983-8.983H120.047
	c-4.962,0-8.983,4.022-8.983,8.983C111.064,260.965,115.085,264.987,120.047,264.987z"/>
<path d="M120.047,310.803h183.137c4.962,0,8.983-4.022,8.983-8.983s-4.021-8.983-8.983-8.983H120.047
	c-4.962,0-8.983,4.022-8.983,8.983S115.085,310.803,120.047,310.803z"/>
<path d="M303.184,338.653H186.558c-4.962,0-8.983,4.022-8.983,8.983c0,4.961,4.021,8.983,8.983,8.983h116.626
	c4.962,0,8.983-4.022,8.983-8.983C312.167,342.675,308.146,338.653,303.184,338.653z"/>
<path d="M120.047,356.619h36.568c4.962,0,8.983-4.022,8.983-8.983c0-4.961-4.021-8.983-8.983-8.983h-36.568
	c-4.962,0-8.983,4.022-8.983,8.983C111.064,352.597,115.085,356.619,120.047,356.619z"/>
<path d="M303.184,430.285h-61.08c-4.962,0-8.983,4.022-8.983,8.983s4.021,8.983,8.983,8.983h61.08c4.962,0,8.983-4.022,8.983-8.983
	S308.146,430.285,303.184,430.285z"/>
<g>
</g>
<g>
</g>
<g>
</g>
<g>
</g>
<g>
</g>
<g>
</g>
<g>
</g>
<g>
</g>
<g>
</g>
<g>
</g>
<g>
</g>
<g>
</g>
<g>
</g>
<g>
</g>
<g>
</g>
</svg>
