<?xml version="1.0" encoding="UTF-8" standalone="no"?>
<svg
   xmlns:dc="http://purl.org/dc/elements/1.1/"
   xmlns:cc="http://creativecommons.org/ns#"
   xmlns:rdf="http://www.w3.org/1999/02/22-rdf-syntax-ns#"
   xmlns:svg="http://www.w3.org/2000/svg"
   xmlns="http://www.w3.org/2000/svg"
   xmlns:sodipodi="http://sodipodi.sourceforge.net/DTD/sodipodi-0.dtd"
   xmlns:inkscape="http://www.inkscape.org/namespaces/inkscape"
   version="1.1"
   id="Capa_1"
   x="0px"
   y="0px"
   viewBox="0 0 469.44 469.44"
   style="enable-background:new 0 0 469.44 469.44;"
   xml:space="preserve"
   sodipodi:docname="eye-disabled.svg"
   inkscape:version="1.0.1 (3bc2e813f5, 2020-09-07)"><metadata
   id="metadata49"><rdf:RDF><cc:Work
       rdf:about=""><dc:format>image/svg+xml</dc:format><dc:type
         rdf:resource="http://purl.org/dc/dcmitype/StillImage" /></cc:Work></rdf:RDF></metadata><defs
   id="defs47">
	
</defs><sodipodi:namedview
   pagecolor="#ffffff"
   bordercolor="#666666"
   borderopacity="1"
   objecttolerance="10"
   gridtolerance="10"
   guidetolerance="10"
   inkscape:pageopacity="0"
   inkscape:pageshadow="2"
   inkscape:window-width="1600"
   inkscape:window-height="838"
   id="namedview45"
   showgrid="false"
   inkscape:zoom="0.71361622"
   inkscape:cx="234.72"
   inkscape:cy="234.72"
   inkscape:window-x="-8"
   inkscape:window-y="-8"
   inkscape:window-maximized="1"
   inkscape:current-layer="Capa_1"
   inkscape:document-rotation="0" />
<rect
   style="fill:#ffffff;stroke:none;stroke-linecap:round"
   id="rect879"
   width="251.53577"
   height="228.41409"
   x="109.30245"
   y="108.60179" /><g
   id="g10">
		<g
   id="g8">
			<path
   d="m 231.147,160.373 67.2,67.2 0.32,-3.52 c 0,-35.307 -28.693,-64 -64,-64 z"
   id="path2" />
			<path
   d="m 234.667,117.387 c 58.88,0 106.667,47.787 106.667,106.667 0,13.76 -2.773,26.88 -7.573,38.933 l 62.4,62.4 c 32.213,-26.88 57.6,-61.653 73.28,-101.333 -37.013,-93.653 -128,-160 -234.773,-160 -29.867,0 -58.453,5.333 -85.013,14.933 l 46.08,45.973 c 12.052,-4.693 25.172,-7.573 38.932,-7.573 z"
   id="path4" />
			<path
   d="m 21.333,59.253 48.64,48.64 9.707,9.707 C 44.48,145.12 16.64,181.707 0,224.053 c 36.907,93.653 128,160 234.667,160 33.067,0 64.64,-6.4 93.547,-18.027 l 9.067,9.067 62.187,62.293 27.2,-27.093 L 48.533,32.053 Z m 117.974,117.867 32.96,32.96 c -0.96,4.587 -1.6,9.173 -1.6,13.973 0,35.307 28.693,64 64,64 4.8,0 9.387,-0.64 13.867,-1.6 l 32.96,32.96 c -14.187,7.04 -29.973,11.307 -46.827,11.307 C 175.787,330.72 128,282.933 128,224.053 c 0,-16.853 4.267,-32.64 11.307,-46.933 z"
   id="path6" />
		</g>
	</g>
<g
   id="g14">
</g>
<g
   id="g16">
</g>
<g
   id="g18">
</g>
<g
   id="g20">
</g>
<g
   id="g22">
</g>
<g
   id="g24">
</g>
<g
   id="g26">
</g>
<g
   id="g28">
</g>
<g
   id="g30">
</g>
<g
   id="g32">
</g>
<g
   id="g34">
</g>
<g
   id="g36">
</g>
<g
   id="g38">
</g>
<g
   id="g40">
</g>
<g
   id="g42">
</g>
<rect
   style="fill:#ff0000;stroke:none;stroke-width:0.983565;stroke-linecap:round"
   id="rect940"
   width="534.81464"
   height="37.210827"
   x="56.779728"
   y="-48.876064"
   ry="0"
   transform="matrix(0.70697786,0.70723568,-0.7193155,0.69468353,0,0)" /></svg>
