<?xml version="1.0" encoding="UTF-8" standalone="no"?>
<svg
   xmlns:dc="http://purl.org/dc/elements/1.1/"
   xmlns:cc="http://creativecommons.org/ns#"
   xmlns:rdf="http://www.w3.org/1999/02/22-rdf-syntax-ns#"
   xmlns:svg="http://www.w3.org/2000/svg"
   xmlns="http://www.w3.org/2000/svg"
   xmlns:sodipodi="http://sodipodi.sourceforge.net/DTD/sodipodi-0.dtd"
   xmlns:inkscape="http://www.inkscape.org/namespaces/inkscape"
   version="1.1"
   id="Capa_1"
   x="0px"
   y="0px"
   viewBox="0 0 469.333 469.333"
   style="enable-background:new 0 0 469.333 469.333;"
   xml:space="preserve"
   sodipodi:docname="eye-2.svg"
   inkscape:version="1.0.1 (3bc2e813f5, 2020-09-07)"><metadata
   id="metadata47"><rdf:RDF><cc:Work
       rdf:about=""><dc:format>image/svg+xml</dc:format><dc:type
         rdf:resource="http://purl.org/dc/dcmitype/StillImage" /><dc:title /></cc:Work></rdf:RDF></metadata><defs
   id="defs45">
	

		
	
			
			
		</defs><sodipodi:namedview
   pagecolor="#ffffff"
   bordercolor="#666666"
   borderopacity="1"
   objecttolerance="10"
   gridtolerance="10"
   guidetolerance="10"
   inkscape:pageopacity="0"
   inkscape:pageshadow="2"
   inkscape:window-width="1920"
   inkscape:window-height="1018"
   id="namedview43"
   showgrid="false"
   inkscape:zoom="1.8110808"
   inkscape:cx="234.6665"
   inkscape:cy="234.6665"
   inkscape:window-x="-8"
   inkscape:window-y="-8"
   inkscape:window-maximized="1"
   inkscape:current-layer="Capa_1"
   inkscape:document-rotation="0" />
<ellipse
   style="fill:#ffffff;stroke:#ffffff;stroke-width:3.01;stroke-linejoin:round"
   id="path846"
   cx="234.6665"
   cy="234.6665"
   rx="136.10657"
   ry="144.11284" /><path
   d="m 276.667,170.667 c -35.307,0 -64,28.693 -64,64 0,35.307 28.693,64 64,64 35.307,0 64,-28.693 64,-64 0,-35.307 -28.694,-64 -64,-64 z"
   id="path2" /><path
   d="M 234.667,74.667 C 128,74.667 36.907,141.013 0,234.667 c 36.907,93.653 128,160 234.667,160 106.773,0 197.76,-66.347 234.667,-160 -36.907,-93.654 -127.894,-160 -234.667,-160 z m 0,266.666 C 175.787,341.333 128,293.546 128,234.666 128,175.786 175.787,128 234.667,128 c 58.88,0 106.667,47.787 106.667,106.667 0,58.88 -47.787,106.666 -106.667,106.666 z"
   id="path4" />
<g
   id="g12">
</g>
<g
   id="g14">
</g>
<g
   id="g16">
</g>
<g
   id="g18">
</g>
<g
   id="g20">
</g>
<g
   id="g22">
</g>
<g
   id="g24">
</g>
<g
   id="g26">
</g>
<g
   id="g28">
</g>
<g
   id="g30">
</g>
<g
   id="g32">
</g>
<g
   id="g34">
</g>
<g
   id="g36">
</g>
<g
   id="g38">
</g>
<g
   id="g40">
</g>
</svg>
