<?xml version="1.0" encoding="UTF-8" standalone="no"?>
<!-- Uploaded to: SVG Repo, www.svgrepo.com, Generator: SVG Repo Mixer Tools -->

<svg
   width="800px"
   height="800px"
   viewBox="0 0 24 24"
   fill="none"
   version="1.1"
   id="svg2"
   sodipodi:docname="eye-disabled.svg"
   inkscape:version="1.4 (86a8ad7, 2024-10-11)"
   xmlns:inkscape="http://www.inkscape.org/namespaces/inkscape"
   xmlns:sodipodi="http://sodipodi.sourceforge.net/DTD/sodipodi-0.dtd"
   xmlns="http://www.w3.org/2000/svg"
   xmlns:svg="http://www.w3.org/2000/svg">
  <defs
     id="defs2" />
  <sodipodi:namedview
     id="namedview2"
     pagecolor="#ffffff"
     bordercolor="#000000"
     borderopacity="0.25"
     inkscape:showpageshadow="2"
     inkscape:pageopacity="0.0"
     inkscape:pagecheckerboard="0"
     inkscape:deskcolor="#d1d1d1"
     inkscape:zoom="1.00875"
     inkscape:cx="400"
     inkscape:cy="400"
     inkscape:window-width="1920"
     inkscape:window-height="1009"
     inkscape:window-x="-8"
     inkscape:window-y="-8"
     inkscape:window-maximized="1"
     inkscape:current-layer="svg2" />
  <path
     opacity="0.5"
     d="M3.27489 15.2957C2.42496 14.1915 2 13.6394 2 12C2 10.3606 2.42496 9.80853 3.27489 8.70433C4.97196 6.49956 7.81811 4 12 4C16.1819 4 19.028 6.49956 20.7251 8.70433C21.575 9.80853 22 10.3606 22 12C22 13.6394 21.575 14.1915 20.7251 15.2957C19.028 17.5004 16.1819 20 12 20C7.81811 20 4.97196 17.5004 3.27489 15.2957Z"
     stroke="#1C274C"
     stroke-width="1.5"
     id="path1"
     style="stroke-width:3;stroke-dasharray:none" />
  <path
     d="M15 12C15 13.6569 13.6569 15 12 15C10.3431 15 9 13.6569 9 12C9 10.3431 10.3431 9 12 9C13.6569 9 15 10.3431 15 12Z"
     stroke="#1C274C"
     stroke-width="1.5"
     id="path2"
     style="stroke-width:3;stroke-dasharray:none" />
  <path
     style="fill:#ff0000;stroke-width:0.99999"
     d="M 2.795539,2.7063197 20.936803,20.520446"
     id="path3" />
  <rect
     style="fill:#ff0000;stroke-width:1.43058"
     id="rect3"
     width="25.827381"
     height="1.9569398"
     x="4.3436232"
     y="0.79394287"
     transform="matrix(0.77488964,0.63209655,-0.77437588,0.63272584,0,0)"
     inkscape:transform-center-x="0.83895574"
     inkscape:transform-center-y="-6.8111943" />
</svg>
