<?xml version="1.0" encoding="UTF-8" standalone="no"?>
<svg
   xmlns:dc="http://purl.org/dc/elements/1.1/"
   xmlns:cc="http://creativecommons.org/ns#"
   xmlns:rdf="http://www.w3.org/1999/02/22-rdf-syntax-ns#"
   xmlns:svg="http://www.w3.org/2000/svg"
   xmlns="http://www.w3.org/2000/svg"
   xmlns:sodipodi="http://sodipodi.sourceforge.net/DTD/sodipodi-0.dtd"
   xmlns:inkscape="http://www.inkscape.org/namespaces/inkscape"
   version="1.1"
   id="Capa_1"
   x="0px"
   y="0px"
   viewBox="0 0 453.944 453.944"
   style="enable-background:new 0 0 453.944 453.944;"
   xml:space="preserve"
   sodipodi:docname="reset.svg"
   inkscape:version="1.0.1 (3bc2e813f5, 2020-09-07)"><metadata
   id="metadata41"><rdf:RDF><cc:Work
       rdf:about=""><dc:format>image/svg+xml</dc:format><dc:type
         rdf:resource="http://purl.org/dc/dcmitype/StillImage" /></cc:Work></rdf:RDF></metadata><defs
   id="defs39" /><sodipodi:namedview
   pagecolor="#ffffff"
   bordercolor="#666666"
   borderopacity="1"
   objecttolerance="10"
   gridtolerance="10"
   guidetolerance="10"
   inkscape:pageopacity="0"
   inkscape:pageshadow="2"
   inkscape:window-width="1920"
   inkscape:window-height="1018"
   id="namedview37"
   showgrid="false"
   inkscape:zoom="1.8724777"
   inkscape:cx="226.972"
   inkscape:cy="226.972"
   inkscape:window-x="-8"
   inkscape:window-y="-8"
   inkscape:window-maximized="1"
   inkscape:current-layer="Capa_1" />
<path
   style="fill:#4479fa"
   d="m 124.51138,40.535 c 2.308,-2.309 5.395,-3.535 8.535,-3.535 1.554,0 3.122,0.301 4.615,0.919 4.509,1.868 7.449,6.268 7.449,11.148 v 41.284 c 0,4.911 3.809,8.985 8.709,9.305 3.999,0.261 7.98,0.562 11.942,0.904 30.808,2.664 60.464,7.753 88.051,15.079 v 0 c 25.391,6.742 49.029,15.378 70.195,25.761 45.395,22.269 76.927,51.273 92.47,84.274 1.608,3.414 3.045,6.871 4.308,10.367 3.529,9.767 5.682,19.846 6.453,30.167 -3.714,49.73 -40.023,93.799 -103.231,124.807 -54.238,26.608 -124.701,41.746 -199.323,42.929 -0.049,0 -0.099,10e-4 -0.148,10e-4 -2.445,0 -4.795,-0.961 -6.541,-2.679 -1.781,-1.752 -2.786,-4.147 -2.786,-6.646 v -54.953 c 0.001,-5.083 4.069,-9.224 9.152,-9.318 60.345,-1.118 118.134,-13.246 159.749,-33.661 32.123,-15.757 52.88,-36.162 52.88,-51.98 0,-0.494 -0.02,-0.994 -0.061,-1.497 -0.181,-2.258 -0.777,-4.604 -1.737,-7.006 1.173,-2.936 1.798,-5.785 1.798,-8.498 0,-0.494 -0.02,-0.994 -0.061,-1.497 -1.248,-15.592 -21.7,-35.217 -52.819,-50.484 -9.335,-4.579 -19.49,-8.737 -30.298,-12.452 -29.088,-9.997 -62.954,-16.752 -98.608,-19.666 -0.253,-0.021 -0.507,-0.031 -0.759,-0.031 -2.333,0 -4.59,0.875 -6.32,2.468 -1.916,1.765 -3.016,4.251 -3.016,6.857 v 17 21.408 c 0,4.881 -2.94,9.281 -7.449,11.148 -1.493,0.619 -3.06,0.919 -4.615,0.919 -3.14,0 -6.227,-1.227 -8.535,-3.535 L 29.888375,135.22 c -0.011,-0.011 -0.019,-0.022 -0.03,-0.033 0.01,-0.011 0.019,-0.022 0.03,-0.033 z"
   id="path2" />
<path
   style="fill:#2c3d8e"
   d="m 133.04638,20 c -3.14,0 -6.227,1.227 -8.535,3.535 l -94.622005,94.622 c -4.712,4.713 -4.712,12.354 0,17.066 l 94.622005,94.622 c 2.308,2.309 5.395,3.535 8.535,3.535 1.555,0 3.122,-0.301 4.615,-0.919 4.509,-1.868 7.449,-6.268 7.449,-11.148 v -38.408 c 0,-2.605 1.099,-5.092 3.016,-6.857 1.73,-1.592 3.988,-2.468 6.32,-2.468 0.252,0 0.505,0.01 0.759,0.031 35.654,2.913 69.519,9.669 98.608,19.666 10.809,3.715 20.964,7.873 30.298,12.452 31.119,15.267 51.572,34.892 52.819,50.484 0.04,0.503 0.061,1.002 0.061,1.497 0,15.818 -20.757,36.223 -52.88,51.98 -41.616,20.416 -99.404,32.543 -159.749,33.661 -5.083,0.094 -9.152,4.236 -9.152,9.32 v 71.951 c 0,2.499 1.005,4.893 2.786,6.646 1.746,1.718 4.096,2.679 6.541,2.679 0.049,0 0.099,0 0.148,-10e-4 74.622,-1.183 145.085,-16.321 199.323,-42.929 66.787,-32.767 103.568,-80.109 103.568,-133.309 0,-13.3 -2.299,-26.234 -6.791,-38.666 -1.263,-3.497 -2.7,-6.953 -4.308,-10.367 -15.543,-33.001 -47.075,-62.005 -92.47,-84.274 -21.166,-10.383 -44.804,-19.019 -70.194,-25.761 v 0 c -27.587,-7.326 -57.243,-12.415 -88.051,-15.079 -3.962,-0.342 -7.943,-0.643 -11.942,-0.904 -4.901,-0.319 -8.709,-4.394 -8.709,-9.305 V 32.068 c 0,-4.881 -2.94,-9.281 -7.449,-11.148 -1.494,-0.619 -3.062,-0.92 -4.616,-0.92 m 0,-20 c 4.231,0 8.359,0.822 12.271,2.443 12.023,4.979 19.793,16.608 19.793,29.625 v 31.367 c 0.794,0.065 1.585,0.132 2.372,0.2 31.916,2.76 62.688,8.034 91.463,15.675 26.839,7.126 51.693,16.256 73.87,27.135 24.218,11.88 45.115,25.776 62.11,41.302 17.426,15.919 30.765,33.551 39.645,52.406 1.867,3.964 3.558,8.034 5.025,12.094 5.295,14.654 7.98,29.95 7.98,45.46 0,31.025 -10.411,60.158 -30.945,86.587 -19.624,25.259 -47.824,47.019 -83.815,64.675 -56.612,27.773 -130.415,43.744 -207.814,44.971 -0.15,0.002 -0.308,0.003 -0.465,0.003 -7.745,0 -15.05,-2.992 -20.57,-8.425 -5.565005,-5.476 -8.757005,-13.094 -8.757005,-20.9 v -71.951 c 0,-7.733 2.984,-15.029 8.401005,-20.545 5.414,-5.513 12.652,-8.627 20.38,-8.771 57.365,-1.063 112.516,-12.588 151.312,-31.62 30.401,-14.913 41.104,-30.011 41.679,-34.024 -0.574,-4.012 -11.277,-19.11 -41.679,-34.025 -8.467,-4.153 -17.884,-8.021 -27.99,-11.494 -24.31,-8.354 -52.521,-14.368 -82.202,-17.556 v 26.678 c 0,13.017 -7.77,24.646 -19.796,29.626 -3.91,1.62 -8.038,2.442 -12.268,2.442 -8.57,-10e-4 -16.623,-3.338 -22.679,-9.395 l -94.620005,-94.62 c -12.503,-12.502 -12.503,-32.846 -10e-4,-45.35 L 110.36938,9.393 c 6.056,-6.057 14.11,-9.393 22.677,-9.393 z"
   id="path4" />
<g
   id="g6">
</g>
<g
   id="g8">
</g>
<g
   id="g10">
</g>
<g
   id="g12">
</g>
<g
   id="g14">
</g>
<g
   id="g16">
</g>
<g
   id="g18">
</g>
<g
   id="g20">
</g>
<g
   id="g22">
</g>
<g
   id="g24">
</g>
<g
   id="g26">
</g>
<g
   id="g28">
</g>
<g
   id="g30">
</g>
<g
   id="g32">
</g>
<g
   id="g34">
</g>
</svg>
